<svg xmlns="http://www.w3.org/2000/svg" version="1.1" xmlns:xlink="http://www.w3.org/1999/xlink" xmlns:svgjs="http://svgjs.com/svgjs" width="160" height="160"><svg xmlns="http://www.w3.org/2000/svg" xmlns:xlink="http://www.w3.org/1999/xlink" width="160" zoomAndPan="magnify" viewBox="0 0 120 119.999999" height="160" preserveAspectRatio="xMidYMid meet" version="1.0"><defs><clipPath id="SvgjsClipPath1002"><path d="M 0 0 L 119.90625 0 L 119.90625 120 L 0 120 Z M 0 0 " clip-rule="nonzero"></path></clipPath><clipPath id="SvgjsClipPath1001"><path d="M 59.90625 0 C 26.769531 0 -0.09375 26.863281 -0.09375 60 C -0.09375 93.136719 26.769531 120 59.90625 120 C 93.042969 120 119.90625 93.136719 119.90625 60 C 119.90625 26.863281 93.042969 0 59.90625 0 Z M 59.90625 0 " clip-rule="nonzero"></path></clipPath><clipPath id="SvgjsClipPath1000"><path d="M 0.046875 0 L 120 0 L 120 120 L 0.046875 120 Z M 0.046875 0 " clip-rule="nonzero"></path></clipPath></defs><rect x="-12" width="144" fill="#ffffff" y="-12" height="143.999998" fill-opacity="1"></rect><rect x="-12" width="144" fill="#ffffff" y="-12" height="143.999998" fill-opacity="1"></rect><g clip-path="url(#f1e4b8f6ab)"><g clip-path="url(#1d44ebf0da)"><path fill="#ffffff" d="M -0.09375 0 L 119.90625 0 L 119.90625 120 L -0.09375 120 Z M -0.09375 0 " fill-opacity="1" fill-rule="nonzero"></path></g></g><g clip-path="url(#4f34916dbc)"><path fill="#004aad" d="M 59.980469 0.0195312 C 79.230469 0.0195312 96.359375 9.101562 107.335938 23.195312 C 102.699219 26.199219 98.164062 29.394531 93.75 32.746094 C 85.792969 22.910156 73.613281 16.613281 59.980469 16.613281 C 41.410156 16.613281 25.578125 28.253906 19.363281 44.640625 C 14.164062 42.851562 8.832031 41.335938 3.375 40.066406 C 11.597656 16.738281 33.835938 0.0195312 59.980469 0.0195312 Z M 119.449219 52.027344 C 119.800781 54.652344 119.972656 57.3125 119.972656 60.03125 C 119.972656 91.347656 95.964844 117.066406 65.34375 119.785156 C 67.320312 116.433594 69.46875 113.097656 71.558594 109.882812 C 73.949219 106.246094 76.398438 102.65625 78.929688 99.097656 C 90.585938 93.4375 99.332031 82.714844 102.292969 69.773438 C 107.730469 63.683594 113.441406 57.734375 119.449219 52.027344 Z M 49.175781 119.054688 C 21.199219 113.964844 -0.0273438 89.476562 -0.0273438 60.027344 C -0.0273438 58.253906 0.0507812 56.519531 0.210938 54.792969 C 6.398438 59.398438 12.738281 65.375 17.878906 70.707031 C 20.871094 82.476562 28.652344 92.328125 39.027344 98.050781 C 43.042969 104.742188 46.476562 111.765625 49.175781 119.054688 Z M 49.175781 119.054688 " fill-opacity="1" fill-rule="evenodd"></path></g><path fill="#00c2cb" d="M 59.980469 28.726562 C 68.347656 28.726562 75.132812 35.511719 75.132812 43.882812 C 75.132812 52.25 68.347656 59.035156 59.980469 59.035156 C 51.597656 59.035156 44.8125 52.25 44.8125 43.882812 C 44.8125 35.511719 51.597656 28.726562 59.980469 28.726562 Z M 59.980469 28.726562 " fill-opacity="1" fill-rule="evenodd"></path><path fill="#00c2cb" d="M 1.410156 46.917969 C 1.410156 46.917969 41.601562 74.152344 57.054688 119.960938 C 57.054688 119.960938 103.460938 35.355469 178.003906 3.710938 C 178.003906 3.710938 117.332031 6.730469 59.679688 75.3125 C 42.851562 61.042969 23.289062 51.976562 1.410156 46.917969 Z M 1.410156 46.917969 " fill-opacity="1" fill-rule="evenodd"></path></svg><style>@media (prefers-color-scheme: light) { :root { filter: none; } }
</style></svg>