<svg xmlns="http://www.w3.org/2000/svg" xmlns:xlink="http://www.w3.org/1999/xlink" width="250" zoomAndPan="magnify" viewBox="0 0 187.5 74.999997" height="100" preserveAspectRatio="xMidYMid meet" version="1.0"><defs><g/><clipPath id="a288abc737"><path d="M 0.746094 14.335938 L 47 14.335938 L 47 60.609375 L 0.746094 60.609375 Z M 0.746094 14.335938 " clip-rule="nonzero"/></clipPath><clipPath id="03698bf941"><path d="M 1 15 L 68.988281 15 L 68.988281 60.609375 L 1 60.609375 Z M 1 15 " clip-rule="nonzero"/></clipPath></defs><g fill="#004aad" fill-opacity="1"><g transform="translate(58.412295, 51.095745)"><g><path d="M 21.484375 -20.75 L 21.484375 0 L 17.546875 0 L 7.203125 -12.59375 L 7.203125 0 L 2.453125 0 L 2.453125 -20.75 L 6.4375 -20.75 L 16.75 -8.15625 L 16.75 -20.75 Z M 21.484375 -20.75 "/></g></g></g><g fill="#004aad" fill-opacity="1"><g transform="translate(82.355386, 51.095745)"><g><path d="M 17.75 -7.90625 C 17.75 -7.851562 17.722656 -7.441406 17.671875 -6.671875 L 5.609375 -6.671875 C 5.816406 -5.679688 6.328125 -4.898438 7.140625 -4.328125 C 7.953125 -3.753906 8.960938 -3.46875 10.171875 -3.46875 C 10.992188 -3.46875 11.726562 -3.585938 12.375 -3.828125 C 13.019531 -4.078125 13.617188 -4.472656 14.171875 -5.015625 L 16.625 -2.34375 C 15.125 -0.625 12.929688 0.234375 10.046875 0.234375 C 8.242188 0.234375 6.648438 -0.113281 5.265625 -0.8125 C 3.890625 -1.519531 2.828125 -2.492188 2.078125 -3.734375 C 1.328125 -4.984375 0.953125 -6.394531 0.953125 -7.96875 C 0.953125 -9.53125 1.320312 -10.9375 2.0625 -12.1875 C 2.800781 -13.445312 3.816406 -14.425781 5.109375 -15.125 C 6.398438 -15.832031 7.847656 -16.1875 9.453125 -16.1875 C 11.015625 -16.1875 12.425781 -15.847656 13.6875 -15.171875 C 14.957031 -14.503906 15.953125 -13.539062 16.671875 -12.28125 C 17.390625 -11.03125 17.75 -9.570312 17.75 -7.90625 Z M 9.484375 -12.6875 C 8.429688 -12.6875 7.550781 -12.390625 6.84375 -11.796875 C 6.132812 -11.203125 5.703125 -10.390625 5.546875 -9.359375 L 13.390625 -9.359375 C 13.234375 -10.367188 12.800781 -11.175781 12.09375 -11.78125 C 11.382812 -12.382812 10.515625 -12.6875 9.484375 -12.6875 Z M 9.484375 -12.6875 "/></g></g></g><g fill="#004aad" fill-opacity="1"><g transform="translate(101.053521, 51.095745)"><g><path d="M 12.265625 0 L 8.78125 -4.890625 L 5.15625 0 L 0.125 0 L 6.25 -8.03125 L 0.328125 -15.953125 L 5.515625 -15.953125 L 8.890625 -11.296875 L 12.359375 -15.953125 L 17.28125 -15.953125 L 11.359375 -8.15625 L 17.515625 0 Z M 12.265625 0 "/></g></g></g><g fill="#004aad" fill-opacity="1"><g transform="translate(118.68488, 51.095745)"><g><path d="M 12.421875 -0.765625 C 11.960938 -0.429688 11.398438 -0.179688 10.734375 -0.015625 C 10.078125 0.148438 9.382812 0.234375 8.65625 0.234375 C 6.757812 0.234375 5.289062 -0.25 4.25 -1.21875 C 3.21875 -2.1875 2.703125 -3.609375 2.703125 -5.484375 L 2.703125 -12.03125 L 0.234375 -12.03125 L 0.234375 -15.59375 L 2.703125 -15.59375 L 2.703125 -19.46875 L 7.328125 -19.46875 L 7.328125 -15.59375 L 11.296875 -15.59375 L 11.296875 -12.03125 L 7.328125 -12.03125 L 7.328125 -5.546875 C 7.328125 -4.867188 7.5 -4.347656 7.84375 -3.984375 C 8.1875 -3.617188 8.675781 -3.4375 9.3125 -3.4375 C 10.039062 -3.4375 10.660156 -3.632812 11.171875 -4.03125 Z M 12.421875 -0.765625 "/></g></g></g><g fill="#00c2cb" fill-opacity="1"><g transform="translate(131.581995, 51.095745)"><g><path d="M 6.28125 0.359375 C 4.875 0.359375 3.582031 0.0976562 2.40625 -0.421875 C 1.238281 -0.953125 0.28125 -1.703125 -0.46875 -2.671875 L 2.1875 -5.875 C 3.320312 -4.351562 4.609375 -3.59375 6.046875 -3.59375 C 8.003906 -3.59375 8.984375 -4.738281 8.984375 -7.03125 L 8.984375 -16.890625 L 1.6875 -16.890625 L 1.6875 -20.75 L 13.75 -20.75 L 13.75 -7.296875 C 13.75 -4.742188 13.113281 -2.828125 11.84375 -1.546875 C 10.582031 -0.273438 8.726562 0.359375 6.28125 0.359375 Z M 6.28125 0.359375 "/></g></g></g><g fill="#00c2cb" fill-opacity="1"><g transform="translate(147.613201, 51.095745)"><g><path d="M 9.71875 0.234375 C 8.039062 0.234375 6.535156 -0.113281 5.203125 -0.8125 C 3.867188 -1.519531 2.828125 -2.492188 2.078125 -3.734375 C 1.328125 -4.984375 0.953125 -6.394531 0.953125 -7.96875 C 0.953125 -9.550781 1.328125 -10.960938 2.078125 -12.203125 C 2.828125 -13.453125 3.867188 -14.425781 5.203125 -15.125 C 6.535156 -15.832031 8.039062 -16.1875 9.71875 -16.1875 C 11.394531 -16.1875 12.894531 -15.832031 14.21875 -15.125 C 15.550781 -14.425781 16.59375 -13.453125 17.34375 -12.203125 C 18.09375 -10.960938 18.46875 -9.550781 18.46875 -7.96875 C 18.46875 -6.394531 18.09375 -4.984375 17.34375 -3.734375 C 16.59375 -2.492188 15.550781 -1.519531 14.21875 -0.8125 C 12.894531 -0.113281 11.394531 0.234375 9.71875 0.234375 Z M 9.71875 -3.5625 C 10.90625 -3.5625 11.878906 -3.957031 12.640625 -4.75 C 13.398438 -5.550781 13.78125 -6.625 13.78125 -7.96875 C 13.78125 -9.3125 13.398438 -10.382812 12.640625 -11.1875 C 11.878906 -11.988281 10.90625 -12.390625 9.71875 -12.390625 C 8.53125 -12.390625 7.550781 -11.988281 6.78125 -11.1875 C 6.007812 -10.382812 5.625 -9.3125 5.625 -7.96875 C 5.625 -6.625 6.007812 -5.550781 6.78125 -4.75 C 7.550781 -3.957031 8.53125 -3.5625 9.71875 -3.5625 Z M 9.71875 -3.5625 "/></g></g></g><g fill="#00c2cb" fill-opacity="1"><g transform="translate(167.02252, 51.095745)"><g><path d="M 11.5625 -16.1875 C 13.039062 -16.1875 14.382812 -15.84375 15.59375 -15.15625 C 16.8125 -14.476562 17.765625 -13.519531 18.453125 -12.28125 C 19.148438 -11.050781 19.5 -9.613281 19.5 -7.96875 C 19.5 -6.332031 19.148438 -4.894531 18.453125 -3.65625 C 17.765625 -2.425781 16.8125 -1.46875 15.59375 -0.78125 C 14.382812 -0.101562 13.039062 0.234375 11.5625 0.234375 C 9.363281 0.234375 7.691406 -0.457031 6.546875 -1.84375 L 6.546875 0 L 2.140625 0 L 2.140625 -22 L 6.765625 -22 L 6.765625 -14.25 C 7.921875 -15.539062 9.519531 -16.1875 11.5625 -16.1875 Z M 10.765625 -3.5625 C 11.941406 -3.5625 12.910156 -3.957031 13.671875 -4.75 C 14.441406 -5.550781 14.828125 -6.625 14.828125 -7.96875 C 14.828125 -9.3125 14.441406 -10.382812 13.671875 -11.1875 C 12.910156 -11.988281 11.941406 -12.390625 10.765625 -12.390625 C 9.578125 -12.390625 8.601562 -11.988281 7.84375 -11.1875 C 7.082031 -10.382812 6.703125 -9.3125 6.703125 -7.96875 C 6.703125 -6.625 7.082031 -5.550781 7.84375 -4.75 C 8.601562 -3.957031 9.578125 -3.5625 10.765625 -3.5625 Z M 10.765625 -3.5625 "/></g></g></g><g clip-path="url(#a288abc737)"><path fill="#004aad" d="M 23.832031 14.34375 C 31.246094 14.34375 37.839844 17.839844 42.070312 23.269531 C 40.285156 24.425781 38.535156 25.65625 36.835938 26.949219 C 33.773438 23.160156 29.082031 20.734375 23.832031 20.734375 C 16.679688 20.734375 10.582031 25.21875 8.1875 31.527344 C 6.183594 30.839844 4.132812 30.253906 2.03125 29.765625 C 5.199219 20.78125 13.761719 14.34375 23.832031 14.34375 Z M 46.734375 34.375 C 46.867188 35.382812 46.9375 36.410156 46.9375 37.457031 C 46.9375 49.515625 37.6875 59.421875 25.894531 60.46875 C 26.65625 59.175781 27.484375 57.890625 28.289062 56.65625 C 29.210938 55.253906 30.152344 53.871094 31.128906 52.5 C 35.617188 50.320312 38.988281 46.191406 40.125 41.207031 C 42.222656 38.863281 44.417969 36.570312 46.734375 34.375 Z M 19.671875 60.1875 C 8.894531 58.226562 0.71875 48.796875 0.71875 37.453125 C 0.71875 36.773438 0.75 36.101562 0.8125 35.4375 C 3.195312 37.210938 5.636719 39.515625 7.617188 41.566406 C 8.769531 46.097656 11.765625 49.894531 15.761719 52.097656 C 17.308594 54.675781 18.628906 57.378906 19.671875 60.1875 Z M 19.671875 60.1875 " fill-opacity="1" fill-rule="evenodd"/></g><path fill="#00c2cb" d="M 23.832031 25.398438 C 27.054688 25.398438 29.667969 28.011719 29.667969 31.234375 C 29.667969 34.457031 27.054688 37.070312 23.832031 37.070312 C 20.601562 37.070312 17.988281 34.457031 17.988281 31.234375 C 17.988281 28.011719 20.601562 25.398438 23.832031 25.398438 Z M 23.832031 25.398438 " fill-opacity="1" fill-rule="evenodd"/><g clip-path="url(#03698bf941)"><path fill="#00c2cb" d="M 1.273438 32.40625 C 1.273438 32.40625 16.753906 42.894531 22.703125 60.535156 C 22.703125 60.535156 40.574219 27.953125 69.285156 15.765625 C 69.285156 15.765625 45.917969 16.925781 23.714844 43.339844 C 17.234375 37.84375 9.699219 34.355469 1.273438 32.40625 Z M 1.273438 32.40625 " fill-opacity="1" fill-rule="evenodd"/></g></svg>