<svg xmlns="http://www.w3.org/2000/svg" xmlns:xlink="http://www.w3.org/1999/xlink" width="160" zoomAndPan="magnify" viewBox="0 0 120 119.999999" height="160" preserveAspectRatio="xMidYMid meet" version="1.0"><defs><clipPath id="4b4e6ac3d0"><path d="M 0 19.527344 L 81 19.527344 L 81 100.527344 L 0 100.527344 Z M 0 19.527344 " clip-rule="nonzero"/></clipPath><clipPath id="7b4cdf8f28"><path d="M 0 22 L 119.953125 22 L 119.953125 100.527344 L 0 100.527344 Z M 0 22 " clip-rule="nonzero"/></clipPath></defs><g clip-path="url(#4b4e6ac3d0)"><path fill="#004aad" d="M 40.429688 19.539062 C 53.414062 19.539062 64.96875 25.664062 72.375 35.167969 C 69.246094 37.195312 66.1875 39.351562 63.210938 41.613281 C 57.84375 34.976562 49.628906 30.730469 40.429688 30.730469 C 27.90625 30.730469 17.222656 38.582031 13.03125 49.636719 C 9.523438 48.429688 5.925781 47.40625 2.246094 46.550781 C 7.792969 30.816406 22.792969 19.539062 40.429688 19.539062 Z M 80.546875 54.621094 C 80.78125 56.390625 80.898438 58.183594 80.898438 60.019531 C 80.898438 81.144531 64.703125 98.492188 44.046875 100.328125 C 45.378906 98.066406 46.832031 95.816406 48.242188 93.648438 C 49.851562 91.195312 51.503906 88.773438 53.214844 86.371094 C 61.078125 82.554688 66.976562 75.320312 68.972656 66.589844 C 72.640625 62.480469 76.492188 58.46875 80.546875 54.621094 Z M 33.144531 99.835938 C 14.269531 96.402344 -0.046875 79.882812 -0.046875 60.015625 C -0.046875 58.820312 0.00390625 57.648438 0.113281 56.488281 C 4.285156 59.59375 8.5625 63.625 12.03125 67.21875 C 14.046875 75.160156 19.296875 81.804688 26.296875 85.667969 C 29.003906 90.179688 31.320312 94.917969 33.144531 99.835938 Z M 33.144531 99.835938 " fill-opacity="1" fill-rule="evenodd"/></g><path fill="#00c2cb" d="M 40.429688 38.902344 C 46.074219 38.902344 50.652344 43.480469 50.652344 49.125 C 50.652344 54.769531 46.074219 59.347656 40.429688 59.347656 C 34.777344 59.347656 30.199219 54.769531 30.199219 49.125 C 30.199219 43.480469 34.777344 38.902344 40.429688 38.902344 Z M 40.429688 38.902344 " fill-opacity="1" fill-rule="evenodd"/><g clip-path="url(#7b4cdf8f28)"><path fill="#00c2cb" d="M 0.921875 51.171875 C 0.921875 51.171875 28.03125 69.546875 38.457031 100.445312 C 38.457031 100.445312 69.757812 43.375 120.046875 22.027344 C 120.046875 22.027344 79.117188 24.0625 40.226562 70.324219 C 28.875 60.703125 15.679688 54.585938 0.921875 51.171875 Z M 0.921875 51.171875 " fill-opacity="1" fill-rule="evenodd"/></g></svg>